<svg width="256" height="256" viewBox="0 0 256 256" fill="none" xmlns="http://www.w3.org/2000/svg">
<rect width="256" height="256" rx="16" fill="url(#paint0_linear)"/>
<g filter="url(#filter0_ii)">
<path d="M125.462 31H164.011C166.988 31 168.922 34.1372 167.584 36.7974L131.416 108.703C130.078 111.363 132.012 114.5 134.989 114.5H179.404C182.959 114.5 184.748 118.791 182.245 121.316L79.009 225.486C78.6832 225.815 78.2397 226 77.7769 226C76.4947 226 75.6556 224.657 76.218 223.504L113.191 147.755C114.488 145.097 112.553 142 109.597 142H73.4982C70.5184 142 68.5848 138.859 69.927 136.198L121.891 33.1983C122.571 31.8502 123.952 31 125.462 31Z" fill="#FF7B00"/>
</g>
<defs>
<filter id="filter0_ii" x="69.4929" y="31" width="113.919" height="198.2" filterUnits="userSpaceOnUse" color-interpolation-filters="sRGB">
<feFlood flood-opacity="0" result="BackgroundImageFix"/>
<feBlend mode="normal" in="SourceGraphic" in2="BackgroundImageFix" result="shape"/>
<feColorMatrix in="SourceAlpha" type="matrix" values="0 0 0 0 0 0 0 0 0 0 0 0 0 0 0 0 0 0 127 0" result="hardAlpha"/>
<feOffset dy="3.2"/>
<feGaussianBlur stdDeviation="3.6"/>
<feComposite in2="hardAlpha" operator="arithmetic" k2="-1" k3="1"/>
<feColorMatrix type="matrix" values="0 0 0 0 0 0 0 0 0 0 0 0 0 0 0 0 0 0 0.132 0"/>
<feBlend mode="normal" in2="shape" result="effect1_innerShadow"/>
<feColorMatrix in="SourceAlpha" type="matrix" values="0 0 0 0 0 0 0 0 0 0 0 0 0 0 0 0 0 0 127 0" result="hardAlpha"/>
<feOffset dy="0.6"/>
<feGaussianBlur stdDeviation="0.9"/>
<feComposite in2="hardAlpha" operator="arithmetic" k2="-1" k3="1"/>
<feColorMatrix type="matrix" values="0 0 0 0 0 0 0 0 0 0 0 0 0 0 0 0 0 0 0.108 0"/>
<feBlend mode="normal" in2="effect1_innerShadow" result="effect2_innerShadow"/>
</filter>
<linearGradient id="paint0_linear" x1="128" y1="0" x2="128" y2="256" gradientUnits="userSpaceOnUse">
<stop stop-color="#222222"/>
<stop offset="1" stop-color="#222222"/>
</linearGradient>
</defs>
</svg>
